<svg width="1280" height="157" viewBox="0 0 1280 157" fill="none" xmlns="http://www.w3.org/2000/svg">
<path d="M-118 0C-118 0 -23.1892 149.474 53.2085 155.491C123.944 161.062 151.381 37.9233 221.978 47.0461C255.027 51.3168 270.396 81.6598 303.436 86.1182C349.566 92.343 373.341 52.0508 419.526 47.0461C524.448 35.6766 575.866 172.772 680.485 155.491C755.729 143.063 786.798 47.6673 862.425 47.0461C919.899 46.5739 947.847 119.614 1004.85 107.648C1043.34 99.5688 1058.39 52.5365 1097.04 47.0461C1160.94 37.9715 1183.23 160.92 1247.28 155.491C1316.79 149.599 1398 0 1398 0H-118Z" fill="url(#paint0_linear_382_13000)" fill-opacity="0.55"/>
<defs>
<linearGradient id="paint0_linear_382_13000" x1="-118" y1="78.5039" x2="1398" y2="78.5039" gradientUnits="userSpaceOnUse">
<stop stop-color="#56CAE4"/>
<stop offset="1" stop-color="#E532A8"/>
</linearGradient>
</defs>
</svg>
