<svg width="1280" height="110" viewBox="0 0 1280 110" fill="none" xmlns="http://www.w3.org/2000/svg">
<path d="M-166 110C-166 110 -71.1892 5.27271 5.2085 1.05712C75.9437 -2.84601 103.381 83.4295 173.978 77.0378C207.027 74.0456 222.396 52.7862 255.436 49.6624C301.566 45.3011 325.341 73.5313 371.526 77.0378C476.448 85.0037 527.866 -11.0504 632.485 1.05712C707.729 9.76506 738.798 76.6025 814.425 77.0378C871.899 77.3686 899.847 26.1939 956.854 34.578C995.342 40.2384 1010.39 73.191 1049.04 77.0378C1112.94 83.3958 1135.23 -2.74669 1199.28 1.05712C1268.79 5.18513 1350 110 1350 110H-166Z" fill="url(#paint0_linear_382_13028)" fill-opacity="0.55"/>
<defs>
<linearGradient id="paint0_linear_382_13028" x1="-166" y1="54.9972" x2="1350" y2="54.9972" gradientUnits="userSpaceOnUse">
<stop stop-color="#56CAE4"/>
<stop offset="1" stop-color="#E532A8"/>
</linearGradient>
</defs>
</svg>
