<svg width="1280" height="110" viewBox="0 0 1280 110" fill="none" xmlns="http://www.w3.org/2000/svg">
<path d="M-104 110C-104 110 -9.18922 5.27271 67.2085 1.05712C137.944 -2.84601 165.381 83.4295 235.978 77.0378C269.027 74.0456 284.396 52.7862 317.436 49.6624C363.566 45.3011 387.341 73.5313 433.526 77.0378C538.448 85.0037 589.866 -11.0504 694.485 1.05712C769.729 9.76506 800.798 76.6025 876.425 77.0378C933.899 77.3686 961.847 26.1939 1018.85 34.578C1057.34 40.2384 1072.39 73.191 1111.04 77.0378C1174.94 83.3958 1197.23 -2.74669 1261.28 1.05712C1330.79 5.18513 1412 110 1412 110H-104Z" fill="url(#paint0_linear_509_163)"/>
<defs>
<linearGradient id="paint0_linear_509_163" x1="-104" y1="54.9972" x2="1412" y2="54.9972" gradientUnits="userSpaceOnUse">
<stop stop-color="#56CAE4"/>
<stop offset="1" stop-color="#E532A8"/>
</linearGradient>
</defs>
</svg>
